<mxfile host="app.diagrams.net" modified="2021-08-10T00:49:11.532Z" agent="5.0 (Windows NT 10.0; Win64; x64) AppleWebKit/537.36 (KHTML, like Gecko) Chrome/92.0.4515.131 Safari/537.36" etag="KAdqmr0s4q35s1ERU0xZ" version="14.9.5" type="github">
  <diagram id="sNmp9wDDKlT82rRzJxxf" name="class structure">
    <mxGraphModel dx="1108" dy="450" grid="0" gridSize="10" guides="1" tooltips="1" connect="1" arrows="1" fold="1" page="1" pageScale="1" pageWidth="850" pageHeight="1100" math="0" shadow="0">
      <root>
        <mxCell id="Dqdy5cghZgxu4CxYk2Yi-0" />
        <mxCell id="Dqdy5cghZgxu4CxYk2Yi-1" parent="Dqdy5cghZgxu4CxYk2Yi-0" />
        <mxCell id="NOKNZEw4vj-lKYtgF1xv-0" value="Base_State" style="swimlane;fontStyle=1;align=center;verticalAlign=top;childLayout=stackLayout;horizontal=1;startSize=26;horizontalStack=0;resizeParent=1;resizeParentMax=0;resizeLast=0;collapsible=1;marginBottom=0;" parent="Dqdy5cghZgxu4CxYk2Yi-1" vertex="1">
          <mxGeometry x="276" y="199" width="212" height="121" as="geometry" />
        </mxCell>
        <mxCell id="NOKNZEw4vj-lKYtgF1xv-1" value="Â id: int&#xa;name: string&#xa;nextStates: array" style="text;strokeColor=none;fillColor=none;align=left;verticalAlign=top;spacingLeft=4;spacingRight=4;overflow=hidden;rotatable=0;points=[[0,0.5],[1,0.5]];portConstraint=eastwest;" parent="NOKNZEw4vj-lKYtgF1xv-0" vertex="1">
          <mxGeometry y="26" width="212" height="56" as="geometry" />
        </mxCell>
        <mxCell id="NOKNZEw4vj-lKYtgF1xv-2" value="" style="line;strokeWidth=1;fillColor=none;align=left;verticalAlign=middle;spacingTop=-1;spacingLeft=3;spacingRight=3;rotatable=0;labelPosition=right;points=[];portConstraint=eastwest;" parent="NOKNZEw4vj-lKYtgF1xv-0" vertex="1">
          <mxGeometry y="82" width="212" height="10" as="geometry" />
        </mxCell>
        <mxCell id="NOKNZEw4vj-lKYtgF1xv-3" value="isValidNextState():boolean" style="text;strokeColor=none;fillColor=none;align=left;verticalAlign=top;spacingLeft=4;spacingRight=4;overflow=hidden;rotatable=0;points=[[0,0.5],[1,0.5]];portConstraint=eastwest;" parent="NOKNZEw4vj-lKYtgF1xv-0" vertex="1">
          <mxGeometry y="92" width="212" height="29" as="geometry" />
        </mxCell>
        <mxCell id="NOKNZEw4vj-lKYtgF1xv-4" value="Available_State" style="swimlane;fontStyle=1;align=center;verticalAlign=top;childLayout=stackLayout;horizontal=1;startSize=26;horizontalStack=0;resizeParent=1;resizeParentMax=0;resizeLast=0;collapsible=1;marginBottom=0;" parent="Dqdy5cghZgxu4CxYk2Yi-1" vertex="1">
          <mxGeometry x="173" y="601" width="160" height="36" as="geometry" />
        </mxCell>
        <mxCell id="NOKNZEw4vj-lKYtgF1xv-6" value="" style="line;strokeWidth=1;fillColor=none;align=left;verticalAlign=middle;spacingTop=-1;spacingLeft=3;spacingRight=3;rotatable=0;labelPosition=right;points=[];portConstraint=eastwest;" parent="NOKNZEw4vj-lKYtgF1xv-4" vertex="1">
          <mxGeometry y="26" width="160" height="10" as="geometry" />
        </mxCell>
        <mxCell id="NOKNZEw4vj-lKYtgF1xv-8" value="Deleted_State" style="swimlane;fontStyle=1;align=center;verticalAlign=top;childLayout=stackLayout;horizontal=1;startSize=26;horizontalStack=0;resizeParent=1;resizeParentMax=0;resizeLast=0;collapsible=1;marginBottom=0;" parent="Dqdy5cghZgxu4CxYk2Yi-1" vertex="1">
          <mxGeometry x="425" y="530" width="160" height="36" as="geometry" />
        </mxCell>
        <mxCell id="NOKNZEw4vj-lKYtgF1xv-10" value="" style="line;strokeWidth=1;fillColor=none;align=left;verticalAlign=middle;spacingTop=-1;spacingLeft=3;spacingRight=3;rotatable=0;labelPosition=right;points=[];portConstraint=eastwest;" parent="NOKNZEw4vj-lKYtgF1xv-8" vertex="1">
          <mxGeometry y="26" width="160" height="10" as="geometry" />
        </mxCell>
        <mxCell id="NOKNZEw4vj-lKYtgF1xv-12" value="Reserved_State" style="swimlane;fontStyle=1;align=center;verticalAlign=top;childLayout=stackLayout;horizontal=1;startSize=26;horizontalStack=0;resizeParent=1;resizeParentMax=0;resizeLast=0;collapsible=1;marginBottom=0;" parent="Dqdy5cghZgxu4CxYk2Yi-1" vertex="1">
          <mxGeometry x="550" y="400" width="160" height="34" as="geometry" />
        </mxCell>
        <mxCell id="NOKNZEw4vj-lKYtgF1xv-14" value="" style="line;strokeWidth=1;fillColor=none;align=left;verticalAlign=middle;spacingTop=-1;spacingLeft=3;spacingRight=3;rotatable=0;labelPosition=right;points=[];portConstraint=eastwest;" parent="NOKNZEw4vj-lKYtgF1xv-12" vertex="1">
          <mxGeometry y="26" width="160" height="8" as="geometry" />
        </mxCell>
        <mxCell id="NOKNZEw4vj-lKYtgF1xv-16" value="Returned_State" style="swimlane;fontStyle=1;align=center;verticalAlign=top;childLayout=stackLayout;horizontal=1;startSize=26;horizontalStack=0;resizeParent=1;resizeParentMax=0;resizeLast=0;collapsible=1;marginBottom=0;" parent="Dqdy5cghZgxu4CxYk2Yi-1" vertex="1">
          <mxGeometry x="687" y="359" width="160" height="36" as="geometry" />
        </mxCell>
        <mxCell id="NOKNZEw4vj-lKYtgF1xv-18" value="" style="line;strokeWidth=1;fillColor=none;align=left;verticalAlign=middle;spacingTop=-1;spacingLeft=3;spacingRight=3;rotatable=0;labelPosition=right;points=[];portConstraint=eastwest;" parent="NOKNZEw4vj-lKYtgF1xv-16" vertex="1">
          <mxGeometry y="26" width="160" height="10" as="geometry" />
        </mxCell>
        <mxCell id="NOKNZEw4vj-lKYtgF1xv-20" value="Deleted_Draft_State" style="swimlane;fontStyle=1;align=center;verticalAlign=top;childLayout=stackLayout;horizontal=1;startSize=26;horizontalStack=0;resizeParent=1;resizeParentMax=0;resizeLast=0;collapsible=1;marginBottom=0;" parent="Dqdy5cghZgxu4CxYk2Yi-1" vertex="1">
          <mxGeometry x="261" y="644" width="160" height="36" as="geometry" />
        </mxCell>
        <mxCell id="NOKNZEw4vj-lKYtgF1xv-22" value="" style="line;strokeWidth=1;fillColor=none;align=left;verticalAlign=middle;spacingTop=-1;spacingLeft=3;spacingRight=3;rotatable=0;labelPosition=right;points=[];portConstraint=eastwest;" parent="NOKNZEw4vj-lKYtgF1xv-20" vertex="1">
          <mxGeometry y="26" width="160" height="10" as="geometry" />
        </mxCell>
        <mxCell id="NOKNZEw4vj-lKYtgF1xv-28" value="Sold_State" style="swimlane;fontStyle=1;align=center;verticalAlign=top;childLayout=stackLayout;horizontal=1;startSize=26;horizontalStack=0;resizeParent=1;resizeParentMax=0;resizeLast=0;collapsible=1;marginBottom=0;" parent="Dqdy5cghZgxu4CxYk2Yi-1" vertex="1">
          <mxGeometry x="625" y="514" width="160" height="36" as="geometry" />
        </mxCell>
        <mxCell id="NOKNZEw4vj-lKYtgF1xv-30" value="" style="line;strokeWidth=1;fillColor=none;align=left;verticalAlign=middle;spacingTop=-1;spacingLeft=3;spacingRight=3;rotatable=0;labelPosition=right;points=[];portConstraint=eastwest;" parent="NOKNZEw4vj-lKYtgF1xv-28" vertex="1">
          <mxGeometry y="26" width="160" height="10" as="geometry" />
        </mxCell>
        <mxCell id="NOKNZEw4vj-lKYtgF1xv-32" value="Draft_State" style="swimlane;fontStyle=1;align=center;verticalAlign=top;childLayout=stackLayout;horizontal=1;startSize=26;horizontalStack=0;resizeParent=1;resizeParentMax=0;resizeLast=0;collapsible=1;marginBottom=0;" parent="Dqdy5cghZgxu4CxYk2Yi-1" vertex="1">
          <mxGeometry x="61" y="651" width="160" height="34" as="geometry" />
        </mxCell>
        <mxCell id="NOKNZEw4vj-lKYtgF1xv-34" value="" style="line;strokeWidth=1;fillColor=none;align=left;verticalAlign=middle;spacingTop=-1;spacingLeft=3;spacingRight=3;rotatable=0;labelPosition=right;points=[];portConstraint=eastwest;" parent="NOKNZEw4vj-lKYtgF1xv-32" vertex="1">
          <mxGeometry y="26" width="160" height="8" as="geometry" />
        </mxCell>
        <mxCell id="NOKNZEw4vj-lKYtgF1xv-41" value="Extends" style="endArrow=block;endSize=16;endFill=0;html=1;" parent="Dqdy5cghZgxu4CxYk2Yi-1" source="NOKNZEw4vj-lKYtgF1xv-60" target="NOKNZEw4vj-lKYtgF1xv-0" edge="1">
          <mxGeometry width="160" relative="1" as="geometry">
            <mxPoint x="260" y="270" as="sourcePoint" />
            <mxPoint x="420" y="270" as="targetPoint" />
            <Array as="points">
              <mxPoint x="413" y="397" />
            </Array>
          </mxGeometry>
        </mxCell>
        <mxCell id="NOKNZEw4vj-lKYtgF1xv-42" value="Extends" style="endArrow=block;endSize=16;endFill=0;html=1;exitX=0.5;exitY=0;exitDx=0;exitDy=0;" parent="Dqdy5cghZgxu4CxYk2Yi-1" source="NOKNZEw4vj-lKYtgF1xv-32" target="NOKNZEw4vj-lKYtgF1xv-0" edge="1">
          <mxGeometry x="0.0724" y="-4" width="160" relative="1" as="geometry">
            <mxPoint x="-150" y="130" as="sourcePoint" />
            <mxPoint x="130" y="180" as="targetPoint" />
            <Array as="points" />
            <mxPoint as="offset" />
          </mxGeometry>
        </mxCell>
        <mxCell id="NOKNZEw4vj-lKYtgF1xv-44" value="Extends" style="endArrow=block;endSize=16;endFill=0;html=1;exitX=0.5;exitY=0;exitDx=0;exitDy=0;" parent="Dqdy5cghZgxu4CxYk2Yi-1" source="NOKNZEw4vj-lKYtgF1xv-4" target="NOKNZEw4vj-lKYtgF1xv-0" edge="1">
          <mxGeometry width="160" relative="1" as="geometry">
            <mxPoint x="120" y="220" as="sourcePoint" />
            <mxPoint x="280" y="220" as="targetPoint" />
          </mxGeometry>
        </mxCell>
        <mxCell id="NOKNZEw4vj-lKYtgF1xv-45" value="Extends" style="endArrow=block;endSize=16;endFill=0;html=1;exitX=0.5;exitY=0;exitDx=0;exitDy=0;" parent="Dqdy5cghZgxu4CxYk2Yi-1" source="NOKNZEw4vj-lKYtgF1xv-20" target="NOKNZEw4vj-lKYtgF1xv-0" edge="1">
          <mxGeometry width="160" relative="1" as="geometry">
            <mxPoint x="340" y="230" as="sourcePoint" />
            <mxPoint x="150" y="186" as="targetPoint" />
            <Array as="points" />
          </mxGeometry>
        </mxCell>
        <mxCell id="NOKNZEw4vj-lKYtgF1xv-46" value="Extends" style="endArrow=block;endSize=16;endFill=0;html=1;exitX=0.5;exitY=0;exitDx=0;exitDy=0;entryX=0.929;entryY=1;entryDx=0;entryDy=0;entryPerimeter=0;" parent="Dqdy5cghZgxu4CxYk2Yi-1" source="NOKNZEw4vj-lKYtgF1xv-28" target="NOKNZEw4vj-lKYtgF1xv-3" edge="1">
          <mxGeometry x="-0.0467" width="160" relative="1" as="geometry">
            <mxPoint x="400" y="150" as="sourcePoint" />
            <mxPoint x="478" y="397" as="targetPoint" />
            <Array as="points">
              <mxPoint x="549" y="452" />
              <mxPoint x="516" y="397" />
            </Array>
            <mxPoint as="offset" />
          </mxGeometry>
        </mxCell>
        <mxCell id="NOKNZEw4vj-lKYtgF1xv-47" value="Extends" style="endArrow=block;endSize=16;endFill=0;html=1;exitX=0.5;exitY=0;exitDx=0;exitDy=0;" parent="Dqdy5cghZgxu4CxYk2Yi-1" source="NOKNZEw4vj-lKYtgF1xv-16" target="NOKNZEw4vj-lKYtgF1xv-0" edge="1">
          <mxGeometry width="160" relative="1" as="geometry">
            <mxPoint x="410" y="160" as="sourcePoint" />
            <mxPoint x="570" y="160" as="targetPoint" />
            <Array as="points" />
          </mxGeometry>
        </mxCell>
        <mxCell id="NOKNZEw4vj-lKYtgF1xv-49" value="Extends" style="endArrow=block;endSize=16;endFill=0;html=1;exitX=0.5;exitY=0;exitDx=0;exitDy=0;" parent="Dqdy5cghZgxu4CxYk2Yi-1" source="NOKNZEw4vj-lKYtgF1xv-12" target="NOKNZEw4vj-lKYtgF1xv-0" edge="1">
          <mxGeometry width="160" relative="1" as="geometry">
            <mxPoint x="430" y="180" as="sourcePoint" />
            <mxPoint x="200" y="110" as="targetPoint" />
            <Array as="points">
              <mxPoint x="499" y="313" />
            </Array>
          </mxGeometry>
        </mxCell>
        <mxCell id="NOKNZEw4vj-lKYtgF1xv-60" value="Expired_State" style="swimlane;fontStyle=1;align=center;verticalAlign=top;childLayout=stackLayout;horizontal=1;startSize=26;horizontalStack=0;resizeParent=1;resizeParentMax=0;resizeLast=0;collapsible=1;marginBottom=0;" parent="Dqdy5cghZgxu4CxYk2Yi-1" vertex="1">
          <mxGeometry x="357" y="589" width="160" height="36" as="geometry" />
        </mxCell>
        <mxCell id="NOKNZEw4vj-lKYtgF1xv-62" value="" style="line;strokeWidth=1;fillColor=none;align=left;verticalAlign=middle;spacingTop=-1;spacingLeft=3;spacingRight=3;rotatable=0;labelPosition=right;points=[];portConstraint=eastwest;" parent="NOKNZEw4vj-lKYtgF1xv-60" vertex="1">
          <mxGeometry y="26" width="160" height="10" as="geometry" />
        </mxCell>
        <mxCell id="NOKNZEw4vj-lKYtgF1xv-64" value="State_Factory" style="swimlane;fontStyle=1;align=center;verticalAlign=top;childLayout=stackLayout;horizontal=1;startSize=26;horizontalStack=0;resizeParent=1;resizeParentMax=0;resizeLast=0;collapsible=1;marginBottom=0;" parent="Dqdy5cghZgxu4CxYk2Yi-1" vertex="1">
          <mxGeometry x="666" y="225" width="160" height="62" as="geometry" />
        </mxCell>
        <mxCell id="NOKNZEw4vj-lKYtgF1xv-66" value="" style="line;strokeWidth=1;fillColor=none;align=left;verticalAlign=middle;spacingTop=-1;spacingLeft=3;spacingRight=3;rotatable=0;labelPosition=right;points=[];portConstraint=eastwest;" parent="NOKNZEw4vj-lKYtgF1xv-64" vertex="1">
          <mxGeometry y="26" width="160" height="10" as="geometry" />
        </mxCell>
        <mxCell id="NOKNZEw4vj-lKYtgF1xv-67" value="createState(int):Base_State&#xa;" style="text;strokeColor=none;fillColor=none;align=left;verticalAlign=top;spacingLeft=4;spacingRight=4;overflow=hidden;rotatable=0;points=[[0,0.5],[1,0.5]];portConstraint=eastwest;" parent="NOKNZEw4vj-lKYtgF1xv-64" vertex="1">
          <mxGeometry y="36" width="160" height="26" as="geometry" />
        </mxCell>
        <mxCell id="NOKNZEw4vj-lKYtgF1xv-69" value="Product" style="swimlane;fontStyle=1;align=center;verticalAlign=top;childLayout=stackLayout;horizontal=1;startSize=26;horizontalStack=0;resizeParent=1;resizeParentMax=0;resizeLast=0;collapsible=1;marginBottom=0;" parent="Dqdy5cghZgxu4CxYk2Yi-1" vertex="1">
          <mxGeometry x="18" y="370" width="177" height="204" as="geometry" />
        </mxCell>
        <mxCell id="NOKNZEw4vj-lKYtgF1xv-70" value="id: int&#xa;product_name:string&#xa;product_price:float&#xa;product_parent:Product&#xa;category: Category&#xa;state:Base_State&#xa;main_image:string&#xa;list_of_images:array" style="text;strokeColor=none;fillColor=none;align=left;verticalAlign=top;spacingLeft=4;spacingRight=4;overflow=hidden;rotatable=0;points=[[0,0.5],[1,0.5]];portConstraint=eastwest;" parent="NOKNZEw4vj-lKYtgF1xv-69" vertex="1">
          <mxGeometry y="26" width="177" height="119" as="geometry" />
        </mxCell>
        <mxCell id="NOKNZEw4vj-lKYtgF1xv-71" value="" style="line;strokeWidth=1;fillColor=none;align=left;verticalAlign=middle;spacingTop=-1;spacingLeft=3;spacingRight=3;rotatable=0;labelPosition=right;points=[];portConstraint=eastwest;" parent="NOKNZEw4vj-lKYtgF1xv-69" vertex="1">
          <mxGeometry y="145" width="177" height="8" as="geometry" />
        </mxCell>
        <mxCell id="NOKNZEw4vj-lKYtgF1xv-72" value="listProducts(): array&#xa;updateProductState(): Product" style="text;strokeColor=none;fillColor=none;align=left;verticalAlign=top;spacingLeft=4;spacingRight=4;overflow=hidden;rotatable=0;points=[[0,0.5],[1,0.5]];portConstraint=eastwest;" parent="NOKNZEw4vj-lKYtgF1xv-69" vertex="1">
          <mxGeometry y="153" width="177" height="51" as="geometry" />
        </mxCell>
        <mxCell id="NOKNZEw4vj-lKYtgF1xv-81" value="Extends" style="endArrow=block;endSize=16;endFill=0;html=1;exitX=0.5;exitY=0;exitDx=0;exitDy=0;entryX=0.816;entryY=1.054;entryDx=0;entryDy=0;entryPerimeter=0;" parent="Dqdy5cghZgxu4CxYk2Yi-1" source="NOKNZEw4vj-lKYtgF1xv-8" target="NOKNZEw4vj-lKYtgF1xv-3" edge="1">
          <mxGeometry width="160" relative="1" as="geometry">
            <mxPoint x="566" y="378" as="sourcePoint" />
            <mxPoint x="428" y="181" as="targetPoint" />
            <Array as="points">
              <mxPoint x="510" y="463" />
            </Array>
          </mxGeometry>
        </mxCell>
        <mxCell id="NOKNZEw4vj-lKYtgF1xv-82" value="Use" style="endArrow=open;endSize=12;dashed=1;html=1;exitX=1.011;exitY=0.196;exitDx=0;exitDy=0;exitPerimeter=0;entryX=0.066;entryY=1;entryDx=0;entryDy=0;entryPerimeter=0;" parent="Dqdy5cghZgxu4CxYk2Yi-1" source="NOKNZEw4vj-lKYtgF1xv-72" target="NOKNZEw4vj-lKYtgF1xv-3" edge="1">
          <mxGeometry width="160" relative="1" as="geometry">
            <mxPoint x="405" y="263" as="sourcePoint" />
            <mxPoint x="565" y="263" as="targetPoint" />
            <Array as="points">
              <mxPoint x="261" y="435" />
            </Array>
          </mxGeometry>
        </mxCell>
        <mxCell id="NOKNZEw4vj-lKYtgF1xv-83" value="Category" style="swimlane;fontStyle=1;align=center;verticalAlign=top;childLayout=stackLayout;horizontal=1;startSize=26;horizontalStack=0;resizeParent=1;resizeParentMax=0;resizeLast=0;collapsible=1;marginBottom=0;" parent="Dqdy5cghZgxu4CxYk2Yi-1" vertex="1">
          <mxGeometry x="30" y="201" width="160" height="118" as="geometry" />
        </mxCell>
        <mxCell id="NOKNZEw4vj-lKYtgF1xv-84" value="id:int&#xa;category_name:string&#xa;category_parent:Category" style="text;strokeColor=none;fillColor=none;align=left;verticalAlign=top;spacingLeft=4;spacingRight=4;overflow=hidden;rotatable=0;points=[[0,0.5],[1,0.5]];portConstraint=eastwest;" parent="NOKNZEw4vj-lKYtgF1xv-83" vertex="1">
          <mxGeometry y="26" width="160" height="58" as="geometry" />
        </mxCell>
        <mxCell id="NOKNZEw4vj-lKYtgF1xv-85" value="" style="line;strokeWidth=1;fillColor=none;align=left;verticalAlign=middle;spacingTop=-1;spacingLeft=3;spacingRight=3;rotatable=0;labelPosition=right;points=[];portConstraint=eastwest;" parent="NOKNZEw4vj-lKYtgF1xv-83" vertex="1">
          <mxGeometry y="84" width="160" height="8" as="geometry" />
        </mxCell>
        <mxCell id="NOKNZEw4vj-lKYtgF1xv-86" value="listCategories():array" style="text;strokeColor=none;fillColor=none;align=left;verticalAlign=top;spacingLeft=4;spacingRight=4;overflow=hidden;rotatable=0;points=[[0,0.5],[1,0.5]];portConstraint=eastwest;" parent="NOKNZEw4vj-lKYtgF1xv-83" vertex="1">
          <mxGeometry y="92" width="160" height="26" as="geometry" />
        </mxCell>
        <mxCell id="NOKNZEw4vj-lKYtgF1xv-93" value="" style="endArrow=none;html=1;edgeStyle=orthogonalEdgeStyle;exitX=1;exitY=0.5;exitDx=0;exitDy=0;entryX=1;entryY=0.5;entryDx=0;entryDy=0;" parent="NOKNZEw4vj-lKYtgF1xv-83" source="NOKNZEw4vj-lKYtgF1xv-84" target="NOKNZEw4vj-lKYtgF1xv-86" edge="1">
          <mxGeometry relative="1" as="geometry">
            <mxPoint x="375" y="209" as="sourcePoint" />
            <mxPoint x="535" y="209" as="targetPoint" />
            <Array as="points">
              <mxPoint x="195" y="55" />
              <mxPoint x="195" y="105" />
            </Array>
          </mxGeometry>
        </mxCell>
        <mxCell id="NOKNZEw4vj-lKYtgF1xv-94" value="parent" style="edgeLabel;resizable=0;html=1;align=left;verticalAlign=bottom;" parent="NOKNZEw4vj-lKYtgF1xv-93" connectable="0" vertex="1">
          <mxGeometry x="-1" relative="1" as="geometry" />
        </mxCell>
        <mxCell id="NOKNZEw4vj-lKYtgF1xv-95" value="child" style="edgeLabel;resizable=0;html=1;align=right;verticalAlign=bottom;" parent="NOKNZEw4vj-lKYtgF1xv-93" connectable="0" vertex="1">
          <mxGeometry x="1" relative="1" as="geometry">
            <mxPoint x="28" y="18" as="offset" />
          </mxGeometry>
        </mxCell>
        <mxCell id="NOKNZEw4vj-lKYtgF1xv-88" value="Use" style="endArrow=open;endSize=12;dashed=1;html=1;entryX=0.456;entryY=1;entryDx=0;entryDy=0;entryPerimeter=0;" parent="Dqdy5cghZgxu4CxYk2Yi-1" source="NOKNZEw4vj-lKYtgF1xv-69" target="NOKNZEw4vj-lKYtgF1xv-86" edge="1">
          <mxGeometry width="160" relative="1" as="geometry">
            <mxPoint x="208.9469999999999" y="314.01800000000003" as="sourcePoint" />
            <mxPoint x="248" y="110.98400000000004" as="targetPoint" />
          </mxGeometry>
        </mxCell>
        <mxCell id="NOKNZEw4vj-lKYtgF1xv-92" value="return" style="html=1;verticalAlign=bottom;endArrow=open;dashed=1;endSize=8;" parent="Dqdy5cghZgxu4CxYk2Yi-1" edge="1">
          <mxGeometry relative="1" as="geometry">
            <mxPoint x="662" y="250" as="sourcePoint" />
            <mxPoint x="489" y="250" as="targetPoint" />
            <Array as="points" />
          </mxGeometry>
        </mxCell>
        <mxCell id="NOKNZEw4vj-lKYtgF1xv-96" value="" style="endArrow=none;html=1;edgeStyle=orthogonalEdgeStyle;exitX=1;exitY=0.5;exitDx=0;exitDy=0;entryX=1;entryY=0.5;entryDx=0;entryDy=0;" parent="Dqdy5cghZgxu4CxYk2Yi-1" edge="1">
          <mxGeometry relative="1" as="geometry">
            <mxPoint x="195" y="418" as="sourcePoint" />
            <mxPoint x="195" y="468" as="targetPoint" />
            <Array as="points">
              <mxPoint x="230" y="418" />
              <mxPoint x="230" y="468" />
            </Array>
          </mxGeometry>
        </mxCell>
        <mxCell id="NOKNZEw4vj-lKYtgF1xv-97" value="parent" style="edgeLabel;resizable=0;html=1;align=left;verticalAlign=bottom;" parent="NOKNZEw4vj-lKYtgF1xv-96" connectable="0" vertex="1">
          <mxGeometry x="-1" relative="1" as="geometry">
            <mxPoint y="1" as="offset" />
          </mxGeometry>
        </mxCell>
        <mxCell id="NOKNZEw4vj-lKYtgF1xv-98" value="child" style="edgeLabel;resizable=0;html=1;align=right;verticalAlign=bottom;" parent="NOKNZEw4vj-lKYtgF1xv-96" connectable="0" vertex="1">
          <mxGeometry x="1" relative="1" as="geometry">
            <mxPoint x="28" y="18" as="offset" />
          </mxGeometry>
        </mxCell>
      </root>
    </mxGraphModel>
  </diagram>
</mxfile>
